<?xml version="1.0" encoding="utf-8"?>
<!-- Generator: Adobe Illustrator 19.0.0, SVG Export Plug-In . SVG Version: 6.00 Build 0)  -->
<svg version="1.1" id="Layer_1" xmlns="http://www.w3.org/2000/svg" xmlns:xlink="http://www.w3.org/1999/xlink" x="0px" y="0px"
	 viewBox="0 0 553.4 553.2" style="enable-background:new 0 0 553.4 553.2;" xml:space="preserve">
<style type="text/css">
	.st0{clip-path:url(#XMLID_10_);fill:#179679;}
	.st1{fill:#15826D;}
	.st2{fill:#179679;}
	.st3{opacity:0.7;fill:#32BA9F;}
	.st4{fill:#E7BC31;}
	.st5{fill:#FFD74B;}
	.st6{opacity:0.5;fill:#EFC339;}
</style>
<g id="XMLID_402_">
	<g id="XMLID_431_">
		<g id="XMLID_450_">
			<g id="XMLID_451_">
				<defs>
					<rect id="XMLID_452_" x="15.5" y="18" width="523.6" height="520.7"/>
				</defs>
				<clipPath id="XMLID_10_">
					<use xlink:href="#XMLID_452_"  style="overflow:visible;"/>
				</clipPath>
				<path id="XMLID_453_" class="st0" d="M536.1,242.2c-4.8-34.4-16.8-68.4-34.8-98.2c-17.6-29.1-41.4-55.2-68.9-75.4
					C404.4,48,372,33,338.5,25c-19.5-4.6-39.7-7-60-7c-0.5,0-1,0-1.5,0c-0.5,0-1,0-1.5,0c-20.3,0-40.4,2.4-60,7
					C182,33,149.6,48,121.7,68.5C94.3,88.7,70.4,114.8,52.8,144c-18,29.8-30.1,63.8-34.9,98.2c-4.9,35.6-2.4,72.7,7.5,107.1
					c9.4,33,25.8,64.6,47.5,91.5c21.4,26.6,48.5,49.3,78.4,65.6c30.7,16.8,65.4,27.3,100.2,30.5c7.9,0.7,16,1.1,24,1.1h3.2
					c8,0,16-0.4,24-1.1c34.8-3.2,69.5-13.8,100.2-30.5c29.9-16.3,57-39,78.4-65.6c21.6-26.9,38-58.5,47.5-91.5
					C538.4,314.9,541,277.8,536.1,242.2L536.1,242.2z M232.2,477.5c-34.3-7.4-66.3-23.8-92.6-47.3c-26.1-23.4-45.9-53.1-57.2-86.1
					c-13.3-38.7-14.5-81.8-3.4-121.3c11.6,10.1,24.1,20.8,36.7,30.9c9.9,7.9,19.8,15.5,29.5,22.5c4.8,3.5,9.8,7,15,10.5
					c2.5,1.7,5,3.4,7.5,5c1.1,0.7,2.2,1.5,3.4,2.2c1.3,0.8,1.6,1.2,2.2,2.6c9.8,23.9,28.6,40.8,42.6,50.8c4.8,3.4,9.7,6.5,14.7,9.2
					c1.4,0.7,2.8,1.5,4.2,2.2c0.1,1.3,0.2,2.6,0.3,3.9c0.3,2.8,0.5,5.6,0.9,8.5c1.3,11.7,2.9,23.8,5.1,36.9
					c3.8,23.4,8.7,47.4,14.8,73.3C255.8,481.2,248.6,480.9,232.2,477.5L232.2,477.5z M273.7,204.8c-17.9,0-33.6,1.7-47.9,5.1
					c-4.5,1.1-8.8,2.3-12.8,3.8c-2.1,0.7-4.1,1.5-6.1,2.4c-0.9,0.4-1.8,0.8-2.6,1.2c-0.9,0.4-1.8,0.1-2.6-0.3
					c-0.2-0.1-0.4-0.2-0.7-0.3c-10-4.4-21-8.9-33.7-13.7c-22.3-8.4-46-16.2-70.5-23.2c16.5-29.8,40.3-55.3,69-73.6
					c32.8-21,70.7-32.1,109.7-32.1h3c39,0,77,11.1,109.7,32.1c28.7,18.4,52.6,43.8,69,73.6c-24.5,7-48.3,14.8-70.5,23.2
					c-12.7,4.8-23.8,9.3-33.8,13.7c-0.2,0.1-0.5,0.2-0.7,0.3c-0.8,0.4-1.7,0.8-2.6,0.3c-0.9-0.4-1.8-0.8-2.6-1.2
					c-2-0.8-4-1.7-6.1-2.4c-4-1.4-8.3-2.7-12.8-3.8c-14.3-3.4-30-5.1-47.9-5.1H273.7z M471.6,344.1c-11.3,32.9-31.1,62.7-57.2,86.1
					c-26.3,23.5-58.3,39.9-92.6,47.3c-15.5,3.2-23.6,3.7-23.6,3.7c6.2-26,11-50,14.8-73.3c2.1-13.2,3.8-25.2,5.1-36.9
					c0.3-2.8,0.6-5.6,0.9-8.5c0.1-1.3,0.2-2.6,0.3-3.9c1.4-0.7,2.8-1.4,4.2-2.2c5-2.7,10-5.8,14.7-9.2c14-10,32.8-26.9,42.6-50.8
					c0.6-1.4,0.9-1.8,2.2-2.6c1.1-0.7,2.2-1.4,3.4-2.2c2.5-1.6,5-3.3,7.5-5c5.1-3.5,10.2-7,15-10.5c9.7-7,19.6-14.6,29.5-22.5
					c12.6-10.1,25.1-20.8,36.7-30.9C486.1,262.3,484.9,305.4,471.6,344.1L471.6,344.1z M471.6,344.1"/>
			</g>
		</g>
		<path id="XMLID_440_" class="st1" d="M59.9,278.4c0,120.1,97.3,217.4,217.4,217.4s217.4-97.3,217.4-217.4S397.4,61,277.4,61
			S59.9,158.3,59.9,278.4z M232.2,477.5c-34.3-7.4-66.3-23.8-92.6-47.3c-26.1-23.4-45.9-53.1-57.2-86.1
			c-13.3-38.7-14.5-81.8-3.4-121.3c11.6,10.1,24.1,20.8,36.7,30.9c9.9,7.9,19.8,15.5,29.5,22.5c4.8,3.5,9.8,7,15,10.5
			c2.5,1.7,5,3.4,7.5,5c1.1,0.7,2.2,1.5,3.4,2.2c1.3,0.8,1.6,1.2,2.2,2.6c9.8,23.9,28.6,40.8,42.6,50.8c4.8,3.4,9.7,6.5,14.7,9.2
			c1.4,0.7,2.8,1.5,4.2,2.2c0.1,1.3,0.2,2.6,0.3,3.9c0.3,2.8,0.5,5.6,0.9,8.5c1.3,11.7,2.9,23.8,5.1,36.9
			c3.8,23.4,8.7,47.4,14.8,73.3C255.8,481.2,248.6,480.9,232.2,477.5z M471.6,344.1c-11.3,32.9-31.1,62.7-57.2,86.1
			c-26.3,23.5-58.3,39.9-92.6,47.3c-15.5,3.2-23.6,3.7-23.6,3.7c6.2-26,11-50,14.8-73.3c2.1-13.2,3.8-25.2,5.1-36.9
			c0.3-2.8,0.6-5.6,0.9-8.5c0.1-1.3,0.2-2.6,0.3-3.9c1.4-0.7,2.8-1.4,4.2-2.2c5-2.7,10-5.8,14.7-9.2c14-10,32.8-26.9,42.6-50.8
			c0.6-1.4,0.9-1.8,2.2-2.6c1.1-0.7,2.2-1.4,3.4-2.2c2.5-1.6,5-3.3,7.5-5c5.1-3.5,10.2-7,15-10.5c9.7-7,19.6-14.6,29.5-22.5
			c12.6-10.1,25.1-20.8,36.7-30.9C486.1,262.3,484.9,305.4,471.6,344.1z M165.8,106c32.8-21,70.7-32.1,109.7-32.1h3
			c39,0,77,11.1,109.7,32.1c28.7,18.4,52.6,43.8,69,73.6c-24.5,7-48.3,14.8-70.5,23.2c-12.7,4.8-23.8,9.3-33.8,13.7
			c-0.2,0.1-0.5,0.2-0.7,0.3c-0.8,0.4-1.7,0.8-2.6,0.3c-0.9-0.4-1.8-0.8-2.6-1.2c-2-0.8-4-1.7-6.1-2.4c-4-1.4-8.3-2.7-12.8-3.8
			c-14.3-3.4-30-5.1-47.9-5.1h-6.6c-17.9,0-33.6,1.7-47.9,5.1c-4.5,1.1-8.8,2.3-12.8,3.8c-2.1,0.7-4.1,1.5-6.1,2.4
			c-0.9,0.4-1.8,0.8-2.6,1.2c-0.9,0.4-1.8,0.1-2.6-0.3c-0.2-0.1-0.4-0.2-0.7-0.3c-10-4.4-21-8.9-33.7-13.7
			c-22.3-8.4-46-16.2-70.5-23.2C113.2,149.9,137.1,124.4,165.8,106z"/>
		<g id="XMLID_433_">
			<path id="XMLID_18_" class="st1" d="M277.6,382.2c-37.6,0-68.8-10.2-90.1-29.6c-19.7-17.9-30.1-42.3-30.1-70.8
				c0-26,2.3-52.6,19-71.1c17.7-19.6,50.8-29.2,101.1-29.2c50.3,0,83.4,9.6,101.1,29.2c16.7,18.5,19,45.1,19,71.1
				c0,28.5-10.4,52.9-30.1,70.8C346.4,372,315.3,382.2,277.6,382.2z"/>
			<path id="XMLID_15_" class="st2" d="M277.6,186.6c48.8,0,80.7,9,97.4,27.6c15.6,17.3,17.7,42.8,17.7,67.8
				c0,27-9.8,50.2-28.4,67.1c-20.4,18.5-50.4,28.3-86.7,28.3s-66.4-9.8-86.7-28.3c-18.6-16.9-28.4-40.1-28.4-67.1
				c0-25,2.1-50.5,17.7-67.8C196.9,195.6,228.8,186.6,277.6,186.6 M277.6,176.6c-112.7,0-125.2,47.2-125.2,105.3
				s42.8,105.3,125.2,105.3s125.2-47.2,125.2-105.3S390.4,176.6,277.6,176.6L277.6,176.6z"/>
		</g>
		<path id="XMLID_432_" class="st3" d="M328.2,286.9c0,16.1-22.6,29.2-50.5,29.2c-27.9,0-50.5-13.1-50.5-29.2
			c0-16.1,4.6-29.2,50.5-29.2S328.2,270.8,328.2,286.9z"/>
	</g>
	<g id="XMLID_419_">
		<path id="XMLID_429_" class="st4" d="M459.3,195.3c1.3-1.5,3.3-2.6,5.8-2.8c28.4-1.8,36-24.6,36-24.6c-15.8,8.8-25.7,6.6-31.1,1.3
			c0,0,13.6,7.6,35.2-4C505.1,165.3,491,201,459.3,195.3z"/>
		<path id="XMLID_428_" class="st4" d="M467.3,226.8c0.8-3.8,4.1-6.9,8.2-7.4c19.2-2.4,28.6-22,28.6-22S496.6,219.8,467.3,226.8z"/>
		<path id="XMLID_427_" class="st4" d="M477.3,246.1c0.7-2.2,4.7-2.8,4.7-2.8c12.9-3.1,23.3-12.9,28.8-19.2c0,0,0-0.1,0.1-0.1
			c1.5-1.5,2.8-3.1,4.3-5.1C515.1,219.1,506.5,240.7,477.3,246.1z"/>
		<path id="XMLID_3_" class="st5" d="M553.1,198.5c-2.5-43.9-31.6-59.3-45.6-58.7c-0.7,0-1.5,0.1-2.3,0.1
			c-12.2,0.4-34.7,0.6-40.6,17.9c0.2,3.8,1.9,8.3,5.3,11.7c0,0,13.6,7.6,35.2-4c0,0-14.1,35.6-45.9,30c-3.4,3.8-3,10.6,2.5,13.4
			c0.1,0.1,0.2,0.1,0.3,0.2c11.5,5.5,25.2,4.7,41.9-11.5c0,0-7.5,22.4-36.7,29.4c-0.2,0.7-0.3,1.5-0.2,2.3c0.1,2.4,1.1,4.5,4.2,5.4
			c8.6,2.4,20.7,2.4,43.9-15.8c0,0-1.5,2.3-4.4,5.5c1.5-1.5,2.8-3.1,4.3-5.1c0,0-8.7,21.6-37.8,27c-0.5,1.6,0.7,4,6.2,7.7
			c13.1,9,68.5,4.4,69.8-46.4C553.4,204.3,553.3,201.3,553.1,198.5z"/>
		<path id="XMLID_424_" class="st6" d="M471.2,153.7c0,0-3.6,7.5,4.9,12.7c0,0,9.7-0.1,12.4-1.4c0,0-3.8-7.6-5.4-12.7
			c-0.7-2.2-3.2-3.3-5.4-2.4C475.5,150.8,473.2,152.1,471.2,153.7z"/>
		<path id="XMLID_423_" class="st4" d="M490.7,256.5c0.5-1.9,4.3-2,4.3-2c12.1-1.5,21.2-9.1,26.1-14.1c0,0,0,0,0.1-0.1
			c1.3-1.2,2.5-2.5,3.7-4.1C524.8,236.4,517.9,254.6,490.7,256.5z"/>
		<path id="XMLID_422_" class="st6" d="M461.5,198.5l7.2,1c0,0-2,5.9-0.3,8.6c0,0-4.2,0.2-7.5-1.7
			C460.9,206.5,458.6,201.1,461.5,198.5z"/>
		<path id="XMLID_421_" class="st6" d="M470.6,227.5l5.7-0.5c0,0-0.5,4.8,1.2,6.6c0,0-3.2,0.9-6,0
			C471.6,233.7,468.9,230,470.6,227.5z"/>
		<path id="XMLID_420_" class="st6" d="M483.3,247.4l5.4-1.8c0,0,0.6,4.8,2.7,6.2c0,0-2.9,1.6-5.8,1.4
			C485.6,253.2,482.2,250.2,483.3,247.4z"/>
	</g>
	<g id="XMLID_403_">
		<path id="XMLID_417_" class="st4" d="M95.3,195.3c-1.3-1.5-3.3-2.6-5.8-2.8c-28.4-1.8-36-24.6-36-24.6c15.8,8.8,25.7,6.6,31.1,1.3
			c0,0-13.6,7.6-35.2-4C49.5,165.3,63.6,201,95.3,195.3z"/>
		<path id="XMLID_416_" class="st4" d="M87.3,226.8c-0.8-3.8-4.1-6.9-8.2-7.4c-19.2-2.4-28.6-22-28.6-22S58,219.8,87.3,226.8z"/>
		<path id="XMLID_411_" class="st4" d="M77.3,246.1c-0.7-2.2-4.7-2.8-4.7-2.8c-12.9-3.1-23.3-12.9-28.8-19.2c0,0,0-0.1-0.1-0.1
			c-1.5-1.5-2.8-3.1-4.3-5.1C39.5,219.1,48.2,240.7,77.3,246.1z"/>
		<path id="XMLID_4_" class="st5" d="M95.3,195.3c-31.7,5.6-45.9-30-45.9-30c21.6,11.6,35.2,4,35.2,4c3.4-3.3,5.1-7.9,5.3-11.7
			c-5.9-17.3-28.4-17.5-40.6-17.9c-0.8,0-1.6-0.1-2.3-0.1c-14-0.6-43.1,14.8-45.6,58.7c-0.2,2.9-0.2,5.8-0.1,9
			c1.3,50.8,56.7,55.4,69.8,46.4c5.4-3.7,6.6-6.1,6.2-7.7c-29.1-5.5-37.8-27-37.8-27c1.4,1.9,2.8,3.6,4.3,5.1
			c-2.8-3.2-4.4-5.5-4.4-5.5c23.2,18.3,35.3,18.2,43.9,15.8c3.1-0.9,4.1-3,4.2-5.4c0-0.8,0-1.6-0.2-2.3c-29.3-7-36.7-29.4-36.7-29.4
			c16.7,16.2,30.5,17,41.9,11.5c0.1-0.1,0.2-0.1,0.3-0.2C98.4,206,98.7,199.2,95.3,195.3z"/>
		<path id="XMLID_409_" class="st6" d="M83.5,153.7c0,0,3.6,7.5-4.9,12.7c0,0-9.7-0.1-12.4-1.4c0,0,3.8-7.6,5.4-12.7
			c0.7-2.2,3.2-3.3,5.4-2.4C79.1,150.8,81.5,152.1,83.5,153.7z"/>
		<path id="XMLID_407_" class="st4" d="M63.9,256.5c-0.5-1.9-4.3-2-4.3-2c-12.1-1.5-21.2-9.1-26.1-14.1c0,0,0,0-0.1-0.1
			c-1.3-1.2-2.5-2.5-3.7-4.1C29.8,236.4,36.7,254.6,63.9,256.5z"/>
		<path id="XMLID_406_" class="st6" d="M93.1,198.5l-7.2,1c0,0,2,5.9,0.3,8.6c0,0,4.2,0.2,7.5-1.7C93.7,206.5,96,201.1,93.1,198.5z"
			/>
		<path id="XMLID_405_" class="st6" d="M84,227.5l-5.7-0.5c0,0,0.5,4.8-1.2,6.6c0,0,3.2,0.9,6,0C83.1,233.7,85.7,230,84,227.5z"/>
		<path id="XMLID_404_" class="st6" d="M71.3,247.4l-5.4-1.8c0,0-0.6,4.8-2.7,6.2c0,0,2.9,1.6,5.8,1.4
			C69,253.2,72.4,250.2,71.3,247.4z"/>
	</g>
</g>
<g id="XMLID_1_">
</g>
<g id="XMLID_2_">
</g>
<g id="XMLID_5_">
</g>
<g id="XMLID_6_">
</g>
<g id="XMLID_7_">
</g>
<g id="XMLID_8_">
</g>
</svg>
