<?xml version="1.0" encoding="utf-8"?>
<!-- Generator: Adobe Illustrator 19.0.0, SVG Export Plug-In . SVG Version: 6.00 Build 0)  -->
<svg version="1.1" id="Layer_1" xmlns="http://www.w3.org/2000/svg" xmlns:xlink="http://www.w3.org/1999/xlink" x="0px" y="0px"
	 viewBox="0 0 553.4 553.2" style="enable-background:new 0 0 553.4 553.2;" xml:space="preserve">
<style type="text/css">
	.st0{opacity:0.17;fill:#197362;enable-background:new    ;}
	.st1{opacity:0.5;}
	.st2{fill:#6AC7B7;}
	.st3{opacity:0.6;}
	.st4{fill:#FFD74B;}
	.st5{fill:#FFFFFF;}
	.st6{fill:#DDB32F;}
	.st7{fill:#DDB536;}
	.st8{opacity:7.000000e-002;}
	.st9{fill:#E4B92B;}
</style>
<circle id="XMLID_1_" class="st0" cx="276.7" cy="276.6" r="276.7"/>
<g id="XMLID_376_">
	<g id="XMLID_361_" class="st1">
		<g id="XMLID_357_">
			<path id="XMLID_35_" class="st2" d="M55.4,359c-1.4,0-2.9-0.3-4.3-0.8c-5.9-2.4-8.8-9.1-6.4-15c12.7-31.5,46.3-118.3,50-141.5
				l1.3-8l83.5-16.1l56.3,106.8c11.5-3.3,32.9-10,55.2-20c37.9-17,62.4-36.3,71.2-55.9l-45.9-68.9l81.9-20.1l106.9,172.9
				l-117.1,51.3c-5.8,2.6-12.6-0.1-15.2-5.9c-2.5-5.8,0.1-12.6,5.9-15.2l92.9-40.7l-84.2-136.2l-33.8,8.3l34.1,51.1l-1.6,5.2
				c-8.9,28.2-37.8,53.5-85.9,75c-34.5,15.4-66.1,23.2-67.5,23.5l-8.7,2.1l-56.8-107.7l-51.4,9.9c-9.6,38.3-48,134-49.7,138.4
				C64.3,356.2,60,359,55.4,359z"/>
		</g>
		<g id="XMLID_358_">
			<path id="XMLID_34_" class="st2" d="M76.7,421.5c-5.1,0-9.8-3.5-11.1-8.6c-1.6-6.2,2.1-12.4,8.3-14l53.7-13.8
				c-2.5-17.9-7.6-56.9-11-99c-6.5-79.3-4.2-129.2,6.9-152.4l2.6-5.4L264,105v106l220.7-76.1c6-2.1,12.6,1.1,14.6,7.1
				c2.1,6-1.1,12.6-7.1,14.6L241,243.3V132.2l-98.9,16.7c-15.1,46,1.6,189.4,9.7,243l1.6,10.3l-73.8,19
				C78.6,421.4,77.6,421.5,76.7,421.5z"/>
		</g>
		<g id="XMLID_360_">
			<path id="XMLID_33_" class="st2" d="M277.5,345.1L233.3,259l54.1-25.8l-8.5-78c-0.7-6.3,3.9-12,10.2-12.7
				c6.3-0.7,12,3.9,12.7,10.2L312,247l-47.4,22.6l23,44.9l97.8-48.1c5.7-2.8,12.6-0.5,15.4,5.2c2.8,5.7,0.5,12.6-5.2,15.4
				L277.5,345.1z"/>
		</g>
	</g>
	<g id="XMLID_359_" class="st3">
		<path id="XMLID_32_" class="st4" d="M55.4,351c-0.4,0-0.9-0.1-1.3-0.3c-1.8-0.7-2.7-2.8-2-4.6c0.5-1.1,45.9-114.4,50.5-143.2
			c0.2-1.5,1.4-2.6,2.8-2.9l67.3-13c1.5-0.3,3.1,0.4,3.8,1.8l55.3,104.9c18-4.8,121.2-34.3,139.4-86.2l-39.2-58.7
			c-0.6-1-0.8-2.2-0.4-3.2c0.4-1.1,1.3-1.9,2.5-2.2l57.8-14.2c1.5-0.4,3,0.3,3.9,1.6l95.6,154.6c0.5,0.9,0.7,1.9,0.4,2.9
			c-0.3,1-1,1.8-2,2.2l-105,46c-1.8,0.8-3.9,0-4.7-1.8c-0.8-1.8,0-3.9,1.8-4.7l101.3-44.4l-92.1-148.9l-50.4,12.3l37.3,56
			c0.6,0.9,0.8,2,0.4,3c-4.5,14.4-15.2,28.3-31.8,41.3c-13,10.2-29.8,19.9-49.7,28.9c-33.8,15.1-65.8,23-66.1,23.1
			c-1.6,0.4-3.2-0.4-4-1.8l-55.4-105l-62.3,12c-6.6,32.7-48.7,137.7-50.5,142.2C58.2,350.2,56.8,351,55.4,351z"/>
	</g>
	<g id="XMLID_375_">
		<g id="XMLID_362_">
			<circle id="XMLID_43_" class="st5" cx="55.5" cy="290.3" r="19.7"/>
		</g>
		<g id="XMLID_363_">
			<g id="XMLID_368_">
				<g id="XMLID_370_">
					<path id="XMLID_65_" class="st4" d="M56.3,259C39,259,25,273.1,25,290.3c0,14.2,9.4,26.2,22.4,30l8.1,27.9l0.8,2.7l9.9-30.9
						c12.5-4.1,21.5-15.9,21.5-29.7C87.6,273.1,73.6,259,56.3,259z M56.3,306.2c-0.3,0-0.6,0-0.8,0c-8.4-0.4-15.1-7.4-15.1-15.9
						c0-8.5,6.7-15.4,15.1-15.9h0c0.3,0,0.5,0,0.8,0c8.8,0,15.9,7.1,15.9,15.9C72.2,299.1,65.1,306.2,56.3,306.2z M56.3,282.6
						c-4.3,0-7.8,3.5-7.8,7.8c0,4.3,3.5,7.8,7.8,7.8s7.8-3.5,7.8-7.8C64.1,286.1,60.6,282.6,56.3,282.6z"/>
				</g>
				<g id="XMLID_369_">
					<path id="XMLID_42_" class="st6" d="M87.6,290.3c0,13.9-9,25.6-21.5,29.7L56.3,351l-0.8-2.7v-42c0.3,0,0.6,0,0.8,0
						c8.8,0,15.9-7.1,15.9-15.9c0-8.8-7.1-15.9-15.9-15.9c-0.3,0-0.5,0-0.8,0h0v-15.4c0.3,0,0.6,0,0.8,0
						C73.6,259,87.6,273.1,87.6,290.3z"/>
				</g>
			</g>
			<g id="XMLID_364_">
				<g id="XMLID_365_">
					<path id="XMLID_58_" class="st6" d="M56.3,270.6c-0.3,0-0.6,0-0.8,0c-10.5,0.4-18.9,9.1-18.9,19.7c0,10.6,8.4,19.3,18.9,19.7
						c0.3,0,0.6,0,0.8,0c10.9,0,19.7-8.8,19.7-19.7C76,279.5,67.2,270.6,56.3,270.6z M56.3,306.2c-0.3,0-0.6,0-0.8,0
						c-8.4-0.4-15.1-7.4-15.1-15.9c0-8.5,6.7-15.4,15.1-15.9h0c0.3,0,0.5,0,0.8,0c8.8,0,15.9,7.1,15.9,15.9
						C72.2,299.1,65.1,306.2,56.3,306.2z"/>
				</g>
			</g>
		</g>
	</g>
	<g id="XMLID_377_">
		<g id="XMLID_381_">
			<rect id="XMLID_41_" x="382.2" y="252.9" class="st7" width="4" height="82"/>
		</g>
		<g id="XMLID_378_">
			<g id="XMLID_380_">
				<path id="XMLID_40_" class="st4" d="M417.4,253.3c-14.9,7.5-29.1,0-29.1,0v20.1c0,0,14.2,7.5,29.1,0c14.9-7.5,30.3,3.3,30.3,3.3
					v-20.1C447.7,256.7,432.4,245.9,417.4,253.3z"/>
			</g>
			<g id="XMLID_379_">
				<path id="XMLID_39_" class="st7" d="M417.4,273.4c-14.9,7.5-29.1,0-29.1,0v20.1c0,0,14.2,7.5,29.1,0c14.9-7.5,30.3,3.3,30.3,3.3
					v-20.1C447.7,276.8,432.4,266,417.4,273.4z"/>
			</g>
		</g>
	</g>
</g>
<g id="XMLID_312_">
	<g id="XMLID_9_" class="st8">
		<g id="XMLID_12_">
			<path id="XMLID_38_" d="M516.1,533.3h-275c-9,0-16.3-7.3-16.3-16.3v-68.6c0-9,7.3-16.3,16.3-16.3h275c9,0,16.3,7.3,16.3,16.3V517
				C532.3,526,525,533.3,516.1,533.3z"/>
		</g>
		<g id="XMLID_11_">
			<path id="XMLID_37_" d="M516.1,523.6h-275c-9,0-16.3-7.3-16.3-16.3v-58.9c0-9,7.3-16.3,16.3-16.3h275c9,0,16.3,7.3,16.3,16.3
				v58.9C532.3,516.3,525,523.6,516.1,523.6z"/>
		</g>
		<g id="XMLID_10_">
			<path id="XMLID_22_" d="M315.9,451.9c14.9,0,23.6,7.4,23.6,20.3c0,13.4-8.6,21.1-23.6,21.1h-15.8v19.1h-6.9v-60.5H315.9z
				 M300.1,486.6h15.6c10.9,0,17.2-4.8,17.2-14.3c0-9.2-6.3-13.8-17.2-13.8h-15.6V486.6z"/>
			<path id="XMLID_25_" d="M391.6,489.5c0,13.6-9.6,23.1-23.1,23.1c-13.5,0-23.1-9.4-23.1-23.1c0-13.6,9.6-22.9,23.1-22.9
				C382,466.6,391.6,476,391.6,489.5z M352.2,489.6c0,10,6.8,16.9,16.3,16.9c9.5,0,16.3-6.9,16.3-16.9c0-9.9-6.8-16.8-16.3-16.8
				C359,472.8,352.2,479.7,352.2,489.6z"/>
			<path id="XMLID_28_" d="M430.1,470.7l-2.6,5.4c-3.5-2.2-8.1-3.7-12.4-3.7c-5.1,0-9,1.8-9,6c0,10.1,25.4,4.9,25.4,21.3
				c0,9-7.9,13-16.7,13c-6.5,0-13.1-2.2-17.5-6.4l2.6-5.1c3.9,3.6,9.8,5.8,15.1,5.8c5.4,0,9.7-2,9.8-6.5c0.3-11-25.2-5.4-25.1-21.5
				c0-8.7,7.5-12.4,15.8-12.4C421,466.6,426.3,468.1,430.1,470.7z"/>
			<path id="XMLID_30_" d="M466.1,509.2c-3.2,2.2-6.7,3.4-10.3,3.5c-6.7,0-11.6-4-11.6-13v-26h-6.6v-5.4h6.6v-12h6.7v12l14.4-0.1
				v5.5h-14.4v24.8c0,5.5,2.2,7.6,6,7.6c2.3,0,4.8-0.8,7.3-2.3L466.1,509.2z"/>
		</g>
	</g>
	<g id="XMLID_3_">
		<g id="XMLID_6_">
			<g id="XMLID_8_">
				<path id="XMLID_36_" class="st9" d="M508.2,527.4h-271c-10.1,0-18.3-8.2-18.3-18.3v-64.6c0-10.1,8.2-18.3,18.3-18.3h271
					c10.1,0,18.3,8.2,18.3,18.3v64.6C526.4,519.2,518.3,527.4,508.2,527.4z"/>
			</g>
			<g id="XMLID_7_">
				<path id="XMLID_2_" class="st4" d="M508.2,517.7h-271c-10.1,0-18.3-8.2-18.3-18.3v-54.9c0-10.1,8.2-18.3,18.3-18.3h271
					c10.1,0,18.3,8.2,18.3,18.3v54.9C526.4,509.5,518.3,517.7,508.2,517.7z"/>
			</g>
		</g>
		<g id="XMLID_5_">
			<path id="XMLID_4_" class="st5" d="M317.5,448c12.5,0,19.7,6.2,19.7,17c0,11.2-7.2,17.6-19.7,17.6h-13.2v16h-5.8V448H317.5z
				 M304.3,477h13c9.1,0,14.4-4,14.4-11.9c0-7.7-5.3-11.6-14.4-11.6h-13V477z"/>
			<path id="XMLID_15_" class="st5" d="M380.8,479.5c0,11.4-8,19.3-19.3,19.3s-19.3-7.9-19.3-19.3c0-11.3,8-19.1,19.3-19.1
				S380.8,468.1,380.8,479.5z M347.9,479.5c0,8.4,5.7,14.1,13.6,14.1c7.9,0,13.6-5.8,13.6-14.1c0-8.3-5.7-14.1-13.6-14.1
				C353.6,465.5,347.9,471.2,347.9,479.5z"/>
			<path id="XMLID_18_" class="st5" d="M412.9,463.7l-2.2,4.5c-3-1.9-6.8-3.1-10.3-3.1c-4.3,0-7.5,1.5-7.5,5.1
				c0,8.4,21.2,4.1,21.2,17.8c0,7.5-6.6,10.8-13.9,10.8c-5.4,0-11-1.9-14.6-5.3l2.2-4.3c3.2,3,8.2,4.8,12.6,4.8
				c4.5,0,8.1-1.7,8.2-5.4c0.2-9.2-21.1-4.5-21-18c0-7.3,6.3-10.3,13.2-10.3C405.3,460.3,409.7,461.6,412.9,463.7z"/>
			<path id="XMLID_20_" class="st5" d="M443,495.9c-2.7,1.8-5.6,2.8-8.6,2.9c-5.6,0-9.7-3.3-9.7-10.8v-21.7h-5.5v-4.5h5.5v-10h5.6
				v10l12.1-0.1v4.6h-12.1V487c0,4.6,1.8,6.4,5.1,6.4c1.9,0,4-0.6,6.1-1.9L443,495.9z"/>
		</g>
	</g>
</g>
<g id="XMLID_44_">
</g>
<g id="XMLID_45_">
</g>
<g id="XMLID_46_">
</g>
<g id="XMLID_47_">
</g>
<g id="XMLID_48_">
</g>
<g id="XMLID_49_">
</g>
</svg>
